<svg xmlns="http://www.w3.org/2000/svg" width="160.755" height="22.283" viewBox="0 0 160.755 22.283"><g transform="translate(-74 -93.568)"><g transform="translate(74 89.483)"><path d="M14.544,0h4.08L11.112-16.8H7.272L-.216,0H3.768L5.256-3.6h7.8ZM6.5-6.552l2.664-6.432,2.664,6.432ZM27.648-16.8H20.376V0h3.888V-4.632h3.384c4.488,0,7.3-2.328,7.3-6.072C34.944-14.472,32.136-16.8,27.648-16.8Zm-.216,9H24.264v-5.832h3.168c2.376,0,3.576,1.08,3.576,2.928C31.008-8.88,29.808-7.8,27.432-7.8ZM37.7,0h3.888V-16.8H37.7ZM64.512,0l-.048-16.8H61.272L55.08-6.36,48.792-16.8H45.576V0h3.648V-9.864l4.92,8.088H55.9l4.944-8.3L60.864,0ZM81.048,0h4.08L77.616-16.8h-3.84L66.288,0h3.984L71.76-3.6h7.8Zm-8.04-6.552,2.664-6.432,2.664,6.432ZM89.52,0h3.888V-13.632h5.376V-16.8H84.144v3.168H89.52Zm11.352,0h3.888V-16.8h-3.888Zm15.912.288a8.632,8.632,0,0,0,6.936-3l-2.5-2.3A5.354,5.354,0,0,1,117-3.024,5.154,5.154,0,0,1,111.624-8.4,5.154,5.154,0,0,1,117-13.776a5.405,5.405,0,0,1,4.224,1.968l2.5-2.3a8.673,8.673,0,0,0-6.912-2.976c-5.232,0-9.12,3.624-9.12,8.688S111.576.288,116.784.288Z" transform="translate(37.035 23)" fill="#0c7ff2"></path><path d="M21.155,22.278H6.735A6.916,6.916,0,0,1,.688,18.444a6.658,6.658,0,0,1-.657-2.288A8.448,8.448,0,0,1,0,15.112a6.77,6.77,0,0,1,1.125-3.4,6.882,6.882,0,0,1,2.718-2.37c.057-.034.159-.059.14-.146a8.284,8.284,0,0,1,.084-2.662,8.1,8.1,0,0,1,1.7-3.559A8.276,8.276,0,0,1,12.553.008a8.373,8.373,0,0,1,3.883,1.176,8.211,8.211,0,0,1,2.788,2.773c.142.224.251.468.388.7a4.634,4.634,0,0,1,5.707.4,4.537,4.537,0,0,1,1.461,3,4.437,4.437,0,0,1-.448,2.288c-.04.076-.078.153-.112.232a9.121,9.121,0,0,1,1.053.455,6.088,6.088,0,0,1,2.677,2.883,5.933,5.933,0,0,1,.292,3.931,5.861,5.861,0,0,1-1.489,2.6,6.1,6.1,0,0,1-4.2,1.842C23.423,22.277,22.289,22.277,21.155,22.278Zm3-5.366a2.49,2.49,0,0,1,.15.33,1.778,1.778,0,0,0,3.154.048,1.718,1.718,0,0,0,.042-1.543,1.782,1.782,0,0,0-1.333-.992A2.011,2.011,0,0,0,25.1,14.9c-.052-.435-.029-.878-.059-1.317-.115.1-.211.224-.318.333a1.758,1.758,0,0,1-.154-.3q-.834-1.772-1.606-3.572c-.047-.074.037-.124.091-.161A1.711,1.711,0,0,0,23.8,8.859a1.8,1.8,0,0,0-.159-1.247,1.775,1.775,0,0,0-1.273-.892,1.827,1.827,0,0,0-1.307.291,2.15,2.15,0,0,0-.576.653c-.311-.325-.594-.673-.9-1-.048.145-.021.3-.056.448a.883.883,0,0,1-.131-.033q-3.587-1.362-7.2-2.647c-.063-.016-.125-.062-.094-.134a1.744,1.744,0,0,0-.774-1.75,1.8,1.8,0,0,0-1.651-.152,1.777,1.777,0,0,0-.845.721,1.754,1.754,0,0,0-.04,1.714,2.107,2.107,0,0,0,.662.689c-.352.292-.739.545-1.084.846a4.015,4.015,0,0,1,.489.076Q6.809,10.3,4.726,14.146c-.023.076-.1.06-.16.04a1.782,1.782,0,0,0-1.949.73,1.72,1.72,0,0,0-.116,1.7,1.78,1.78,0,0,0,2.694.62,1.774,1.774,0,0,0,.669-1.2c.357.26.681.563,1.028.837-.01-.164-.04-.326-.038-.49a3.7,3.7,0,0,1,.4.065,54.8,54.8,0,0,0,16.581.494c.091-.008.182-.033.273-.033ZM3.4,17.062a1.363,1.363,0,0,1-.689-1.414,1.388,1.388,0,0,1,2.651-.278,1.353,1.353,0,0,1-.226,1.382,1.4,1.4,0,0,1-1.069.482A1.332,1.332,0,0,1,3.4,17.062Zm.417-2.037a.884.884,0,0,0-.635.921.9.9,0,0,0,.837.816.909.909,0,0,0,.949-.741.884.884,0,0,0-.386-.882.91.91,0,0,0-.506-.151A.922.922,0,0,0,3.821,15.025Zm10.605,1.9a53.375,53.375,0,0,1-7.477-.9,4.408,4.408,0,0,1,.257-.41c-.439.06-.87.182-1.308.25-.057-.06-.026-.173-.05-.252-.006-.144-.089-.279-.091-.419,1.227-.689,2.486-1.322,3.76-1.918a61.941,61.941,0,0,1,9.036-3.389c.318-.086.632-.191.954-.257.009.142-.012.285,0,.428.324-.287.636-.585.958-.873a2.081,2.081,0,0,0,.727.766,1.889,1.889,0,0,0,1.354.174c.059-.028.083.047.1.085.337.773.67,1.549,1.022,2.317.234.53.5,1.048.723,1.58-.167.032-.336.05-.5.078a1.7,1.7,0,0,0,.263.206c.268.2.55.382.809.594a1.8,1.8,0,0,0-.79,1.1c-.046.149-.02.312-.064.46-1.343.191-2.7.3-4.053.374-1,.051-2,.08-3,.08Q15.738,17,14.426,16.926Zm-8.9-2.1a2.469,2.469,0,0,0-.5-.467C6.075,12.4,7.136,10.451,8.177,8.487c.338-.629.665-1.264,1.01-1.889.123.1.238.212.359.315,0-.446,0-.893.008-1.34a2.057,2.057,0,0,0,.948.166,1.8,1.8,0,0,0,1.465-1,2.68,2.68,0,0,1,.352.113c1.724.611,3.441,1.241,5.154,1.88.641.246,1.288.476,1.925.734-.107.133-.234.249-.343.382.457-.011.913-.056,1.37-.06a2.255,2.255,0,0,0-.114.618,2.419,2.419,0,0,0,.081.607c-.428-.054-.853-.135-1.281-.192q.16.216.324.432a.6.6,0,0,1-.207.081,62.215,62.215,0,0,0-13.552,5.5.256.256,0,0,1-.1.037A.057.057,0,0,1,5.522,14.83Z" transform="translate(0 4.085)" fill="#0c7ff2"></path></g></g></svg>